<svg width="41" height="40" viewBox="0 0 41 40" fill="none" xmlns="http://www.w3.org/2000/svg">
<rect x="0.5" width="40" height="40" rx="20" fill="#FFF5EE"/>
<path d="M13.1923 28.2212V28.7212H13.1923L13.1923 28.2212ZM13.1923 19.0866V19.5866H13.1923L13.1923 19.0866ZM13.4328 28.2211L13.4328 28.7211H13.4328L13.4328 28.2211ZM13.4326 19.0866L13.4326 18.5866L13.4326 19.0866ZM27.8077 28.2212L27.8077 28.7212H27.8077V28.2212ZM27.8077 19.0866L27.8077 19.5866H27.8077V19.0866ZM27.5672 28.2211L27.5672 28.7211H27.5672L27.5672 28.2211ZM27.5674 19.0866L27.5674 18.5866L27.5674 19.0866ZM29.1212 28.5212C29.2868 28.3002 29.2421 27.9868 29.0212 27.8212C28.8002 27.6555 28.4868 27.7002 28.3212 27.9212L29.1212 28.5212ZM27.1058 30.375L27.5058 30.675L27.1058 30.375ZM20.5 31.375C20.2239 31.375 20 31.5989 20 31.875C20 32.1511 20.2239 32.375 20.5 32.375V31.375ZM11.8654 17.1014C11.8654 12.4282 15.723 8.625 20.5 8.625V7.625C15.1872 7.625 10.8654 11.8596 10.8654 17.1014H11.8654ZM20.5 8.625C25.277 8.625 29.1346 12.4282 29.1346 17.1014H30.1346C30.1346 11.8596 25.8128 7.625 20.5 7.625V8.625ZM29.1346 17.1014V19.6448H30.1346V17.1014H29.1346ZM10.8654 17.1014V19.6448H11.8654V17.1014H10.8654ZM13.1923 27.7212C10.946 27.7212 9.125 25.9002 9.125 23.6539H8.125C8.125 26.4525 10.3937 28.7212 13.1923 28.7212V27.7212ZM9.125 23.6539C9.125 21.4076 10.946 19.5866 13.1923 19.5866V18.5866C10.3937 18.5866 8.125 20.8553 8.125 23.6539H9.125ZM13.1923 19.5866L13.4326 19.5866L13.4326 18.5866L13.1923 18.5866L13.1923 19.5866ZM15.4327 21.5866V25.7211H16.4327V21.5866H15.4327ZM13.4328 27.7211L13.1923 27.7212L13.1923 28.7212L13.4328 28.7211L13.4328 27.7211ZM15.4327 25.7211C15.4327 26.8257 14.5373 27.7211 13.4328 27.7211L13.4328 28.7211C15.0896 28.7211 16.4327 27.378 16.4327 25.7211H15.4327ZM13.4326 19.5866C14.5372 19.5866 15.4327 20.482 15.4327 21.5866H16.4327C16.4327 19.9297 15.0895 18.5866 13.4326 18.5866L13.4326 19.5866ZM27.8077 28.7212C30.6063 28.7212 32.875 26.4525 32.875 23.6539H31.875C31.875 25.9002 30.054 27.7212 27.8077 27.7212V28.7212ZM32.875 23.6539C32.875 20.8553 30.6063 18.5866 27.8077 18.5866V19.5866C30.054 19.5866 31.875 21.4076 31.875 23.6539H32.875ZM27.8077 18.5866L27.5674 18.5866L27.5674 19.5866L27.8077 19.5866L27.8077 18.5866ZM24.5673 21.5866V25.7211H25.5673V21.5866H24.5673ZM27.5672 28.7211L27.8077 28.7212L27.8077 27.7212L27.5672 27.7211L27.5672 28.7211ZM24.5673 25.7211C24.5673 27.378 25.9104 28.7211 27.5672 28.7211L27.5672 27.7211C26.4627 27.7211 25.5673 26.8257 25.5673 25.7211H24.5673ZM27.5674 18.5866C25.9105 18.5866 24.5673 19.9297 24.5673 21.5866H25.5673C25.5673 20.482 26.4628 19.5866 27.5674 19.5866L27.5674 18.5866ZM28.3212 27.9212L26.7058 30.075L27.5058 30.675L29.1212 28.5212L28.3212 27.9212ZM24.1058 31.375H20.5V32.375H24.1058V31.375ZM26.7058 30.075C26.092 30.8934 25.1287 31.375 24.1058 31.375V32.375C25.4435 32.375 26.7031 31.7452 27.5058 30.675L26.7058 30.075Z" fill="url(#paint0_linear_1947_17033)"/>
<defs>
<linearGradient id="paint0_linear_1947_17033" x1="20.5" y1="8.125" x2="20.5" y2="31.875" gradientUnits="userSpaceOnUse">
<stop stop-color="#FF7400"/>
<stop offset="1" stop-color="#DF4300"/>
</linearGradient>
</defs>
</svg>
