<svg width="24" height="24" viewBox="0 0 24 24" fill="none" xmlns="http://www.w3.org/2000/svg">
<path d="M9.63166 15.4516L9.8 15.2522V14.269L7.04193 8H5.75807L3 14.269V15.3002L3.14995 15.4754C3.56182 15.9555 4.06142 16.3388 4.61741 16.6012C5.1734 16.8636 5.77376 16.9993 6.3808 17H6.39568C7.00522 16.9971 7.60757 16.858 8.16459 16.5915C8.72161 16.3249 9.22118 15.9368 9.63166 15.4516ZM8.66667 14.7726C8.06204 15.4192 7.24401 15.7814 6.39182 15.7798H6.38013C5.54293 15.7844 4.73702 15.4376 4.13333 14.813V14.5435L6.4 9.39138L8.66667 14.5435V14.7726ZM17.2419 8H15.9581L13.2 14.269V15.3002L13.35 15.4754C13.7618 15.9555 14.2614 16.3388 14.8174 16.6012C15.3734 16.8636 15.9738 16.9993 16.5808 17H16.5957C17.2052 16.9971 17.8076 16.858 18.3646 16.5914C18.9216 16.3249 19.4212 15.9367 19.8317 15.4516L20 15.2522V14.269L17.2419 8ZM18.8667 14.7726C18.262 15.4192 17.444 15.7814 16.5918 15.7798H16.5801C15.7429 15.7844 14.937 15.4376 14.3333 14.813V14.5435L16.6 9.39138L18.8667 14.5435V14.7726Z" fill="url(#paint0_linear_1947_15416)"/>
<path d="M12.05 9.03159C12.356 8.93324 12.6344 8.75529 12.8603 8.51367C13.0862 8.27206 13.2526 7.97431 13.3445 7.64707H17V6.4706H13.3445C13.2261 6.04572 12.9827 5.67307 12.6503 5.4081C12.318 5.14313 11.9145 5 11.5 5C11.0855 5 10.682 5.14313 10.3497 5.4081C10.0173 5.67307 9.77386 6.04572 9.65547 6.4706H6V7.64707H9.65547C9.74743 7.97431 9.91381 8.27206 10.1397 8.51367C10.3656 8.75529 10.644 8.93324 10.95 9.03159V18.8235H7.375V20H15.625V18.8235H12.05V9.03159ZM10.675 7.05883C10.675 6.88432 10.7234 6.71373 10.814 6.56862C10.9047 6.42352 11.0335 6.31043 11.1843 6.24364C11.335 6.17686 11.5009 6.15939 11.6609 6.19343C11.821 6.22748 11.968 6.31152 12.0834 6.43491C12.1987 6.55831 12.2773 6.71553 12.3091 6.88669C12.341 7.05785 12.3246 7.23526 12.2622 7.39649C12.1998 7.55772 12.094 7.69553 11.9583 7.79248C11.8227 7.88944 11.6632 7.94118 11.5 7.94118C11.2812 7.94118 11.0714 7.84822 10.9166 7.68275C10.7619 7.51728 10.675 7.29285 10.675 7.05883Z" fill="url(#paint1_linear_1947_15416)"/>
<defs>
<linearGradient id="paint0_linear_1947_15416" x1="11.5" y1="8" x2="11.5" y2="17" gradientUnits="userSpaceOnUse">
<stop stop-color="#FF2E67"/>
<stop offset="0.352222" stop-color="#F52D64"/>
<stop offset="0.697222" stop-color="#D02A58"/>
<stop offset="1" stop-color="#A22748"/>
</linearGradient>
<linearGradient id="paint1_linear_1947_15416" x1="11.5" y1="5" x2="11.5" y2="20" gradientUnits="userSpaceOnUse">
<stop stop-color="#FF2E67"/>
<stop offset="0.352222" stop-color="#F52D64"/>
<stop offset="0.697222" stop-color="#D02A58"/>
<stop offset="1" stop-color="#A22748"/>
</linearGradient>
</defs>
</svg>
