<svg width="218" height="44" viewBox="0 0 218 44" fill="none" xmlns="http://www.w3.org/2000/svg">
<g clip-path="url(#clip0_1402_5607)">
<path d="M46.0104 36.3H35.6511C25.5404 36.3 17.3154 28.1577 17.3154 18.1498C17.3154 11.5082 11.8564 6.10455 5.14658 6.10455H3.08339C1.38028 6.10455 0 4.73788 0 3.05207C0 1.36667 1.3807 0 3.08339 0H5.14658C15.2572 0 23.4826 8.14187 23.4826 18.1494C23.4826 24.7914 28.9413 30.195 35.6511 30.195H46.0104C52.7202 30.195 58.1789 24.7914 58.1789 18.1494V9.01324C58.1789 7.32784 59.56 5.96076 61.2627 5.96076C62.9658 5.96076 64.3461 7.32743 64.3461 9.01324V18.1494C64.3461 28.1573 56.1206 36.2996 46.0104 36.2996V36.3Z" fill="#4B99FF"/>
<path d="M30.3163 40.2668C30.3163 42.3298 28.6294 44.002 26.5488 44.002C24.4681 44.002 22.7812 42.3298 22.7812 40.2668C22.7812 38.2034 24.4681 36.5312 26.5488 36.5312C28.6294 36.5312 30.3163 38.2034 30.3163 40.2668Z" fill="#EC3A72"/>
<path d="M59.8749 40.2668C59.8749 42.3298 58.188 44.002 56.1074 44.002C54.0267 44.002 52.3398 42.3298 52.3398 40.2668C52.3398 38.2034 54.0267 36.5312 56.1074 36.5312C58.188 36.5312 59.8749 38.2034 59.8749 40.2668Z" fill="#EC3A72"/>
<path d="M37.4287 26.9516C34.3794 26.9516 32.001 26.2083 30.2945 24.7222C28.5879 23.2361 27.7344 21.0512 27.7344 18.1683C27.7344 15.2629 28.5879 13.067 30.2945 11.5809C32.001 10.0948 34.3794 9.35156 37.4287 9.35156H45.9628C47.9653 9.35156 49.4959 9.81528 50.554 10.7427C51.612 11.6701 52.1415 12.9945 52.1415 14.7153C52.1415 18.2241 50.0818 19.9783 45.9628 19.9783H33.0595C33.5375 22.0569 34.9939 23.096 37.4287 23.096H51.2536V26.9512H37.4287V26.9516ZM37.4287 13.2068C35.0848 13.2068 33.6396 14.179 33.0935 16.1235H45.7239C46.179 16.1235 46.5375 15.9895 46.7989 15.7213C47.0607 15.4532 47.1914 15.0844 47.1914 14.615C47.1914 13.6762 46.7022 13.2072 45.7234 13.2072H37.4283L37.4287 13.2068Z" fill="#F9F6EE"/>
<path d="M74.4888 27.0147C72.6443 27.0147 71.2328 26.551 70.2539 25.6233C69.2746 24.6956 68.7852 23.3723 68.7852 21.6526C68.7852 19.9556 69.2746 18.6435 70.2539 17.7162C71.2328 16.7885 72.6447 16.3248 74.4888 16.3248H87.6038V15.5102C87.6038 14.13 86.9209 13.4403 85.5547 13.4403H71.0734V9.53763H86.8524C88.9244 9.53763 90.3931 10.007 91.2583 10.9459C92.1234 11.8847 92.556 13.2027 92.556 14.8997V27.0147H74.4888ZM75.3767 23.1121H87.6038V20.2275H75.3767C74.9442 20.2275 74.6083 20.3574 74.3692 20.6177C74.1301 20.878 74.0105 21.2228 74.0105 21.6526C74.0105 22.0825 74.1301 22.4331 74.3692 22.7045C74.6083 22.9759 74.9442 23.1117 75.3767 23.1117V23.1121ZM95.7322 27.1842V23.2816H112.467C113.424 23.2816 113.902 22.7499 113.902 21.6865C113.902 20.6457 113.423 20.1256 112.467 20.1256H101.64C99.6142 20.1256 98.0774 19.6673 97.03 18.7511C95.9826 17.835 95.4591 16.5171 95.4591 14.7974C95.4591 13.0554 95.9884 11.7148 97.0474 10.7759C98.106 9.8371 99.6375 9.36768 101.641 9.36768H117.215V13.2703H101.88C100.901 13.2703 100.411 13.7455 100.411 14.6955C100.411 15.1707 100.548 15.544 100.821 15.8154C101.094 16.0868 101.447 16.2225 101.88 16.2225H113.355C115.131 16.2225 116.492 16.6808 117.437 17.597C118.381 18.5131 118.854 19.8422 118.854 21.5846C118.854 23.3492 118.376 24.7237 117.42 25.7079C116.463 26.6921 115.108 27.1842 113.355 27.1842H95.7322ZM125.719 34.65V30.7474H136.033C137.399 30.7474 138.082 30.0573 138.082 28.6771V27.0143H127.529C125.525 27.0143 124.062 26.5164 123.14 25.521C122.218 24.5257 121.756 23.2362 121.756 21.6522V9.53722H126.709V21.0756C126.709 22.4331 127.392 23.1117 128.758 23.1117H137.911V9.53722H143.034V29.288C143.034 30.8942 142.567 32.1895 141.634 33.1737C140.7 34.1579 139.243 34.65 137.262 34.65H125.718H125.719ZM146.792 27.0143V2.75H151.744V27.0143H146.792ZM147.646 27.0143V23.1117H159.429C160.909 23.1117 162.042 22.7099 162.827 21.9067C163.612 21.1036 164.005 19.8987 164.005 18.2925C164.005 16.6635 163.612 15.4475 162.827 14.6443C162.042 13.8412 160.909 13.4398 159.429 13.4398H147.987V9.53722H159.429C162.48 9.53722 164.859 10.2838 166.567 11.7771C168.274 13.2703 169.128 15.4421 169.128 18.2929C169.128 21.1209 168.274 23.2816 166.567 24.7748C164.859 26.2681 162.48 27.0147 159.429 27.0147H147.646V27.0143ZM177.804 27.0143C175.8 27.0143 174.337 26.5164 173.415 25.521C172.493 24.5257 172.031 23.2362 172.031 21.6522V9.53722H176.984V21.0756C176.984 22.4331 177.667 23.1117 179.033 23.1117H186.137C187.503 23.1117 188.186 22.4327 188.186 21.0756V9.53722H193.138V21.6522C193.138 23.2358 192.677 24.5253 191.755 25.521C190.833 26.5164 189.37 27.0143 187.366 27.0143H177.803H177.804ZM200.686 34.65V30.7474H211.001C212.367 30.7474 213.05 30.0573 213.05 28.6771V27.0143H202.496C200.493 27.0143 199.03 26.5164 198.107 25.521C197.185 24.5257 196.724 23.2362 196.724 21.6522V9.53722H201.676V21.0756C201.676 22.4331 202.359 23.1117 203.725 23.1117H212.879V9.53722H218.001V29.288C218.001 30.8942 217.535 32.1895 216.601 33.1737C215.668 34.1579 214.21 34.65 212.229 34.65H200.686H200.686Z" fill="#F9F6EE"/>
</g>
<defs>
<clipPath id="clip0_1402_5607">
<rect width="218" height="44" fill="white"/>
</clipPath>
</defs>
</svg>
