<svg width="40" height="40" viewBox="0 0 40 40" fill="none" xmlns="http://www.w3.org/2000/svg">
<rect width="40" height="40" rx="20" fill="#FFF5EE"/>
<path d="M30.8921 9.39313C30.656 9.19632 30.3713 9.06743 30.0681 9.02017C29.765 8.97292 29.4547 9.00905 29.1704 9.12473L9.54758 17.0808C9.23048 17.2117 8.96052 17.4363 8.77352 17.7249C8.58653 18.0135 8.49135 18.3524 8.50062 18.6966C8.50989 19.0408 8.62317 19.374 8.82542 19.652C9.02767 19.93 9.30933 20.1397 9.633 20.2531L13.8671 21.7293L16.1615 29.3477C16.1659 29.3631 16.1802 29.373 16.1867 29.3873C16.2107 29.4479 16.2452 29.5038 16.2886 29.5523C16.3553 29.6263 16.4409 29.6807 16.5361 29.7096C16.547 29.714 16.5547 29.7239 16.5657 29.7261H16.5722L16.5755 29.7272C16.6603 29.7454 16.7483 29.7409 16.8307 29.714L16.8581 29.7085C16.9371 29.6804 17.0087 29.6345 17.0673 29.5743C17.0738 29.5666 17.0848 29.5655 17.0914 29.5589L20.3912 25.9004L25.2069 29.6458C25.4993 29.8757 25.8596 30 26.2309 30C27.0347 30 27.728 29.4346 27.8934 28.6459L31.466 11.0266C31.5269 10.7275 31.5057 10.4173 31.4046 10.1294C31.3035 9.84147 31.1264 9.58657 30.8921 9.39203M17.3586 23.1758L16.5843 26.9564L14.9689 21.5907L22.9803 17.3998L17.5075 22.8975C17.4319 22.9736 17.3801 23.0704 17.3586 23.1758ZM26.8201 28.4248C26.7995 28.5246 26.7538 28.6173 26.6872 28.6942C26.6207 28.7711 26.5356 28.8294 26.4401 28.8637C26.3468 28.8992 26.246 28.9099 26.1474 28.8949C26.0488 28.8799 25.9557 28.8396 25.8771 28.7779L20.6606 24.7201C20.5516 24.6356 20.4148 24.5954 20.2776 24.6077C20.1404 24.6199 20.0128 24.6836 19.9203 24.7861L17.6236 27.3282L18.3969 23.5586L26.2703 15.6498C26.3625 15.5569 26.4186 15.4339 26.4285 15.3031C26.4384 15.1723 26.4014 15.0423 26.3242 14.9364C26.247 14.8306 26.1346 14.756 26.0075 14.7261C25.8803 14.6961 25.7467 14.7128 25.6307 14.7731L14.2811 20.7107L9.99114 19.2126C9.87774 19.1743 9.77889 19.1017 9.70812 19.0049C9.63735 18.908 9.59811 18.7915 9.59577 18.6714C9.58998 18.55 9.62213 18.4298 9.68772 18.3276C9.75331 18.2254 9.84906 18.1464 9.96157 18.1016L29.5811 10.1455C29.6817 10.1031 29.7921 10.0895 29.9 10.1062C30.0078 10.1229 30.109 10.1692 30.1922 10.2401C30.2751 10.3069 30.3377 10.3957 30.3729 10.4964C30.4081 10.5971 30.4146 10.7057 30.3916 10.8099L26.8201 28.4248Z" fill="url(#paint0_linear_1947_17037)"/>
<defs>
<linearGradient id="paint0_linear_1947_17037" x1="20" y1="9" x2="20" y2="30" gradientUnits="userSpaceOnUse">
<stop stop-color="#FF7400"/>
<stop offset="1" stop-color="#DF4300"/>
</linearGradient>
</defs>
</svg>
