<svg width="40" height="40" viewBox="0 0 40 40" fill="none" xmlns="http://www.w3.org/2000/svg">
<rect width="40" height="40" rx="20" fill="#FFF5EE"/>
<path d="M27.1493 22.8483L23.4691 21.0083C23.3966 20.9722 23.316 20.9559 23.2352 20.9609C23.1544 20.966 23.0764 20.9922 23.009 21.037L21.0953 22.3135C20.0433 21.8091 19.195 20.9608 18.6905 19.9089L19.9671 17.9953C20.0119 17.9279 20.0382 17.8499 20.0432 17.7692C20.0483 17.6884 20.0319 17.6077 19.9958 17.5353L18.1557 13.8553C18.1175 13.7785 18.0586 13.7139 17.9857 13.6688C17.9127 13.6236 17.8286 13.5998 17.7428 13.6C16.6447 13.6 15.5916 14.0362 14.8152 14.8126C14.0387 15.589 13.6025 16.642 13.6025 17.74C13.6052 20.3012 14.6239 22.7566 16.4351 24.5676C18.2462 26.3786 20.7019 27.3973 23.2632 27.4C24.3613 27.4 25.4144 26.9638 26.1908 26.1874C26.9673 25.411 27.4035 24.358 27.4035 23.26C27.4036 23.1745 27.3798 23.0908 27.3349 23.018C27.29 22.9453 27.2258 22.8865 27.1493 22.8483ZM23.2632 26.48C20.9458 26.4776 18.724 25.556 17.0853 23.9174C15.4467 22.2789 14.525 20.0572 14.5226 17.74C14.5224 16.9341 14.8245 16.1574 15.3692 15.5634C15.9139 14.9694 16.6615 14.6012 17.4645 14.5315L19.0516 17.7066L17.7865 19.6087C17.7443 19.6715 17.7183 19.7437 17.7107 19.8189C17.703 19.8941 17.7141 19.9701 17.7428 20.04C18.354 21.493 19.51 22.6488 20.963 23.26C21.033 23.2891 21.1091 23.3004 21.1846 23.293C21.26 23.2856 21.3325 23.2596 21.3955 23.2175L23.2977 21.9524L26.4731 23.5394C26.4031 24.3423 26.0346 25.0898 25.4403 25.6342C24.8461 26.1787 24.0692 26.4804 23.2632 26.48ZM20.503 9C18.5008 8.99963 16.5332 9.52193 14.7948 10.5152C13.0564 11.5085 11.6075 12.9384 10.5913 14.6635C9.57512 16.3885 9.02694 18.3489 9.00097 20.3508C8.97499 22.3527 9.47213 24.3267 10.4432 26.0775L9.07459 30.1818C8.9935 30.425 8.98173 30.6859 9.04061 30.9354C9.09948 31.1849 9.22668 31.413 9.40793 31.5942C9.58919 31.7755 9.81734 31.9027 10.0668 31.9615C10.3163 32.0204 10.5773 32.0086 10.8204 31.9275L14.9251 30.559C16.4605 31.4098 18.1703 31.8977 19.9235 31.9856C21.6766 32.0734 23.4267 31.7589 25.0395 31.0659C26.6523 30.373 28.085 29.3201 29.228 27.9879C30.3709 26.6557 31.1938 25.0796 31.6334 23.3803C32.0731 21.681 32.1179 19.9036 31.7644 18.1843C31.411 16.4651 30.6686 14.8495 29.5942 13.4614C28.5199 12.0733 27.142 10.9496 25.5661 10.1763C23.9903 9.40296 22.2584 9.00059 20.503 9ZM20.503 31.08C18.6427 31.0806 16.8151 30.5907 15.2046 29.6597C15.1346 29.6195 15.0553 29.5981 14.9745 29.5976C14.9249 29.5978 14.8755 29.6059 14.8285 29.6218L10.5295 31.0547C10.4484 31.0817 10.3614 31.0857 10.2783 31.066C10.1951 31.0464 10.119 31.004 10.0586 30.9436C9.9982 30.8832 9.9558 30.8071 9.93618 30.724C9.91655 30.6408 9.92048 30.5539 9.94751 30.4728L11.3805 26.1741C11.4012 26.1123 11.4085 26.0468 11.4019 25.982C11.3954 25.9172 11.3752 25.8545 11.3426 25.798C10.176 23.7818 9.70755 21.437 10.0098 19.1273C10.312 16.8177 11.3681 14.6723 13.0141 13.0241C14.6602 11.3758 16.8042 10.3168 19.1136 10.0114C21.423 9.70591 23.7687 10.1711 25.7867 11.3347C27.8047 12.4983 29.3823 14.2953 30.2747 16.4469C31.1672 18.5986 31.3245 20.9845 30.7224 23.2347C30.1202 25.4849 28.7923 27.4735 26.9445 28.892C25.0968 30.3105 22.8325 31.0796 20.503 31.08Z" fill="url(#paint0_linear_1947_17041)"/>
<defs>
<linearGradient id="paint0_linear_1947_17041" x1="20.5" y1="9" x2="20.5" y2="32" gradientUnits="userSpaceOnUse">
<stop stop-color="#FF7400"/>
<stop offset="1" stop-color="#DF4300"/>
</linearGradient>
</defs>
</svg>
