<svg width="40" height="40" viewBox="0 0 40 40" fill="none" xmlns="http://www.w3.org/2000/svg">
<path d="M23.667 8.85168L13.8486 18.7472C13.5191 19.0794 13.334 19.5299 13.334 19.9997C13.334 20.4694 13.5191 20.9199 13.8486 21.2521L23.667 31.1477C23.9128 31.3953 24.2259 31.564 24.5668 31.6323C24.9077 31.7006 25.2611 31.6656 25.5822 31.5315C25.9034 31.3975 26.1778 31.1705 26.371 30.8792C26.5641 30.588 26.6672 30.2455 26.6673 29.8952V10.1041C26.6672 9.75381 26.5641 9.41138 26.371 9.12013C26.1778 8.82888 25.9034 8.60188 25.5822 8.46783C25.2611 8.33379 24.9077 8.2987 24.5668 8.36703C24.2259 8.43535 23.9128 8.60401 23.667 8.85168Z" fill="#104C9A"/>
</svg>
