<svg width="40" height="40" viewBox="0 0 40 40" fill="none" xmlns="http://www.w3.org/2000/svg">
<path d="M16.3343 31.1477L26.1527 21.2521C26.4822 20.9199 26.6673 20.4694 26.6673 19.9997C26.6673 19.5299 26.4822 19.0794 26.1527 18.7472L16.3343 8.85168C16.0885 8.60401 15.7754 8.43535 15.4345 8.36703C15.0936 8.2987 14.7402 8.33379 14.4191 8.46783C14.0979 8.60188 13.8235 8.82888 13.6303 9.12013C13.4372 9.41138 13.3341 9.75381 13.334 10.1041V29.8952C13.3341 30.2455 13.4372 30.588 13.6303 30.8792C13.8235 31.1705 14.0979 31.3975 14.4191 31.5315C14.7402 31.6656 15.0936 31.7006 15.4345 31.6323C15.7754 31.564 16.0885 31.3953 16.3343 31.1477Z" fill="#104C9A"/>
</svg>
