<svg width="27" height="28" viewBox="0 0 27 28" fill="none" xmlns="http://www.w3.org/2000/svg">
<path d="M22.6238 16.664C22.929 16.6641 23.226 16.5696 23.4696 16.395C23.7133 16.2203 23.8903 15.975 23.9739 15.6961L26.7809 6.36397C26.8404 6.16557 26.8507 5.95676 26.8108 5.75397C26.7709 5.55118 26.6821 5.35994 26.5512 5.19531C26.4203 5.03068 26.251 4.89714 26.0566 4.80521C25.8622 4.71328 25.6479 4.66546 25.4308 4.66551H6.86261L6.02753 1.65922C5.9485 1.37457 5.77251 1.12276 5.527 0.943092C5.28149 0.763423 4.98028 0.665998 4.67036 0.666016H1.57146C1.19923 0.666016 0.842246 0.806474 0.579041 1.05649C0.315836 1.30651 0.167969 1.6456 0.167969 1.99918C0.167969 2.35276 0.315836 2.69186 0.579041 2.94187C0.842246 3.19189 1.19923 3.33235 1.57146 3.33235H3.58967L4.43177 6.33864V6.35197V6.36397L7.23875 15.6961L8.28575 19.677C7.59261 19.9689 6.99533 20.4332 6.55696 21.0208C6.1186 21.6085 5.85542 22.2977 5.79522 23.0156C5.73502 23.7336 5.88003 24.4536 6.21494 25.0998C6.54985 25.746 7.06223 26.2942 7.69797 26.6867C8.33372 27.0792 9.06924 27.3013 9.82686 27.3296C10.5845 27.3579 11.3361 27.1914 12.0024 26.8475C12.6686 26.5037 13.2247 25.9954 13.6121 25.3762C13.9994 24.7571 14.2035 24.0501 14.2029 23.3298C14.1982 22.8746 14.1108 22.4236 13.9446 21.9967H17.2681C17.1019 22.4236 17.0145 22.8746 17.0098 23.3298C17.0098 24.1209 17.2568 24.8941 17.7194 25.5518C18.1821 26.2096 18.8397 26.7222 19.609 27.0249C20.3784 27.3276 21.225 27.4068 22.0417 27.2525C22.8585 27.0982 23.6087 26.7173 24.1975 26.1579C24.7864 25.5986 25.1874 24.8859 25.3499 24.1101C25.5123 23.3343 25.4289 22.5301 25.1103 21.7993C24.7916 21.0685 24.2519 20.4438 23.5595 20.0044C22.8671 19.5649 22.0531 19.3303 21.2203 19.3303H11.0871L10.3854 16.664H22.6238ZM11.3959 23.3298C11.3959 23.5935 11.3136 23.8513 11.1593 24.0705C11.0051 24.2897 10.7859 24.4606 10.5295 24.5615C10.273 24.6624 9.99083 24.6888 9.71858 24.6374C9.44633 24.586 9.19626 24.459 8.99997 24.2725C8.80369 24.0861 8.67002 23.8485 8.61587 23.5899C8.56172 23.3313 8.58951 23.0633 8.69573 22.8197C8.80196 22.5761 8.98185 22.3678 9.21265 22.2214C9.44346 22.0749 9.71481 21.9967 9.99239 21.9967C10.3646 21.9967 10.7216 22.1371 10.9848 22.3871C11.248 22.6372 11.3959 22.9763 11.3959 23.3298ZM21.2203 24.663C20.9427 24.663 20.6714 24.5848 20.4406 24.4383C20.2098 24.2918 20.0299 24.0836 19.9236 23.84C19.8174 23.5964 19.7896 23.3284 19.8438 23.0698C19.8979 22.8111 20.0316 22.5736 20.2279 22.3871C20.4242 22.2007 20.6742 22.0737 20.9465 22.0223C21.2187 21.9709 21.5009 21.9973 21.7574 22.0982C22.0138 22.1991 22.233 22.3699 22.3873 22.5892C22.5415 22.8084 22.6238 23.0662 22.6238 23.3298C22.6238 23.6834 22.4759 24.0225 22.2127 24.2725C21.9495 24.5226 21.5925 24.663 21.2203 24.663Z" fill="#001524"/>
</svg>
