<svg width="33" height="32" viewBox="0 0 33 32" fill="none" xmlns="http://www.w3.org/2000/svg">
<path d="M16.5013 15.2976C20.0699 15.2976 22.9628 12.4699 22.9628 8.98181C22.9628 5.49369 20.0699 2.66602 16.5013 2.66602C12.9327 2.66602 10.0398 5.49369 10.0398 8.98181C10.0398 12.4699 12.9327 15.2976 16.5013 15.2976Z" fill="#1F487E"/>
<path d="M18.6551 16.7011H14.3475C12.444 16.7033 10.6192 17.4434 9.27331 18.759C7.92739 20.0745 7.17025 21.8582 7.16797 23.7186V27.9292C7.16797 28.3014 7.31925 28.6584 7.58853 28.9216C7.85782 29.1848 8.22304 29.3327 8.60387 29.3327H24.3987C24.7796 29.3327 25.1448 29.1848 25.4141 28.9216C25.6834 28.6584 25.8346 28.3014 25.8346 27.9292V23.7186C25.8324 21.8582 25.0752 20.0745 23.7293 18.759C22.3834 17.4434 20.5586 16.7033 18.6551 16.7011Z" fill="#1F487E"/>
</svg>
